<svg width="355" height="309" viewBox="0 0 355 309" fill="none" xmlns="http://www.w3.org/2000/svg">
<path d="M76.5877 151.171C87.954 132.466 116.213 136.969 121.238 158.286L149.547 278.386C153.174 293.776 141.533 308.531 125.764 308.531H24.4759C5.40543 308.531 -6.31617 287.602 3.60784 271.27L76.5877 151.171Z" fill="#F0BB31"/>
<path d="M76.5877 151.171C87.954 132.466 116.213 136.969 121.238 158.286L149.547 278.386C153.174 293.776 141.533 308.531 125.764 308.531H24.4759C5.40543 308.531 -6.31617 287.602 3.60784 271.27L76.5877 151.171Z" fill="url(#paint0_linear)"/>
<path d="M135.231 29.9108C129.169 3.38279 164.79 -11.6068 179.797 11.1568L350.947 270.77C361.647 287 349.911 308.531 330.366 308.531H218.533C207.045 308.531 197.088 300.64 194.548 289.524L135.231 29.9108Z" fill="#F0BB31"/>
<path d="M135.231 29.9108C129.169 3.38279 164.79 -11.6068 179.797 11.1568L350.947 270.77C361.647 287 349.911 308.531 330.366 308.531H218.533C207.045 308.531 197.088 300.64 194.548 289.524L135.231 29.9108Z" fill="url(#paint1_linear)"/>
<defs>
<linearGradient id="paint0_linear" x1="75.1065" y1="139.406" x2="75.1065" y2="308.531" gradientUnits="userSpaceOnUse">
<stop stop-color="#E5AA12"/>
<stop offset="1" stop-color="white" stop-opacity="0"/>
</linearGradient>
<linearGradient id="paint1_linear" x1="244.772" y1="0" x2="244.772" y2="308.531" gradientUnits="userSpaceOnUse">
<stop stop-color="#E5AA12"/>
<stop offset="1" stop-color="white" stop-opacity="0"/>
</linearGradient>
</defs>
</svg>
